<svg width="157" height="157" viewBox="0 0 157 157" fill="none" xmlns="http://www.w3.org/2000/svg">
<path d="M78.4997 98.125V104.667H52.333L58.8747 98.125H78.4997Z" fill="#90A4AE"/>
<path d="M16.3542 88.3125L0 94.8542H52.3333V104.667L58.875 98.125V88.3125H16.3542Z" fill="#607D8B"/>
<path d="M104.667 52.3333L98.125 58.875V68.6875L104.667 62.1458V52.3333Z" fill="#ECEFF1"/>
<path d="M140.646 68.6875L157 62.1458L140.646 94.8541L130.833 88.3125L140.646 68.6875Z" fill="#CFD8DC"/>
<path d="M98.125 88.3125V98.125L104.667 104.667V94.8542L98.125 88.3125Z" fill="#90A4AE"/>
<path d="M98.125 88.3125L104.667 94.8542H140.646L130.833 88.3125H98.125Z" fill="#90A4AE"/>
<path d="M104.667 104.667L98.125 98.125H78.5V104.667H104.667Z" fill="#B0BEC5"/>
<path d="M104.667 62.1458L98.125 68.6875H140.646L157 62.1458H104.667Z" fill="#ECEFF1"/>
<path d="M52.333 52.3333H104.666V104.667H52.333V52.3333Z" fill="#CFD8DC"/>
<path d="M16.3542 62.1458H157L140.646 94.8541H0L16.3542 62.1458Z" fill="#CFD8DC"/>
<path d="M140.646 68.6875H98.1253V58.875H58.8753V68.6875H26.167L16.3545 88.3125H58.8753V98.125H98.1253V88.3125H130.834L140.646 68.6875Z" fill="#FFD54F"/>
<path d="M78.5003 98.125V58.875H58.8753V68.6875H26.167L16.3545 88.3125H58.8753V98.125H78.5003Z" fill="#FFC107"/>
<path d="M52.333 52.3333L58.8747 58.875V68.6875L52.333 62.1458V52.3333Z" fill="#90A4AE"/>
<path d="M52.333 52.3333H78.4997V58.875H58.8747L52.333 52.3333Z" fill="#B0BEC5"/>
<path d="M0 94.8541L16.3542 88.3125L26.1667 68.6875L16.3542 62.1458L0 94.8541Z" fill="#90A4AE"/>
<path d="M16.3545 62.1458L26.167 68.6875H58.8753L52.3337 62.1458H16.3545Z" fill="#B0BEC5"/>
</svg>
