<svg width="100" height="100" viewBox="0 0 100 100" fill="none" xmlns="http://www.w3.org/2000/svg">
<path d="M49.1667 31.0417C48.75 32.7083 48.125 34.375 47.7083 36.25C46.875 34.5833 46.0417 32.9167 45 31.4583C42.7083 27.5 40 23.9583 36.4583 21.25C33.3333 18.9583 29.5833 17.5 25.625 17.7083C20 17.9167 15.4167 20.2083 11.875 24.7917C11.6667 24.7917 11.4583 25 11.25 25C12.0833 22.9167 13.5417 21.0417 15.2083 19.375C22.0833 13.125 32.2917 12.9167 40 18.5417C43.9583 21.6667 46.875 25.625 48.9583 30.2083C49.1667 30.625 49.1667 30.8333 49.1667 31.0417ZM88.75 25.2083C87.2917 23.3333 85.625 21.6667 83.5417 20.4167C77.0833 16.4583 69.1667 16.875 63.125 21.6667C59.5833 24.5833 56.875 28.125 54.5833 32.0833C53.75 33.3333 53.125 34.7917 52.2917 36.25C51.875 34.7917 51.4583 33.5417 51.0417 32.2917C50.625 31.25 50.8333 30.4167 51.25 29.5833C53.3333 25.625 56.0417 21.875 59.5833 19.1667C67.0833 13.125 77.7083 13.5417 84.5833 19.7917C86.4583 21.25 87.9167 22.9167 88.75 25.2083Z" fill="#E64A19"/>
<path d="M89.9997 32.0833C87.708 27.9167 84.1664 25.8333 79.3747 25.8333C74.7914 25.8333 71.2497 27.9167 68.1247 31.0417C64.1664 35 62.083 40 60.208 45.2083C60.208 45.4167 60.208 45.8333 60.4164 45.8333C61.0414 46.25 61.6664 46.6667 62.2914 47.0833C62.708 47.2917 62.9164 47.7083 62.708 48.125C62.2914 50 62.083 51.875 61.6664 53.75C61.6664 54.1667 61.2497 54.375 61.0414 54.5833C59.583 55.2083 58.333 55.8333 56.8747 56.25C56.458 56.4583 56.2497 56.6667 56.2497 57.2917C56.0414 58.3333 56.0414 59.1667 55.833 60.2083C55.6247 61.0417 55.6247 62.0833 55.4164 62.9167C56.8747 61.25 58.1247 59.375 60.6247 59.1667C60.4164 60.4167 60.208 61.4583 59.9997 62.7083C59.9997 63.125 59.583 63.3333 59.3747 63.5417C58.1247 64.1667 56.8747 64.5833 55.6247 65C55.208 65.2083 54.9997 65.4167 54.9997 65.8333C54.583 68.75 54.1664 71.875 53.7497 74.7917C53.5414 75.8333 53.333 76.6667 53.7497 77.7083C54.1664 78.5417 54.3747 79.5833 54.583 80.625C53.1247 81.25 51.6664 81.875 50.208 82.2917C49.9997 82.2917 49.7914 82.2917 49.583 82.2917C48.1247 81.6667 46.6664 81.25 45.208 80.625C45.6247 79.5833 45.833 78.5417 46.0414 77.7083C46.2497 77.2917 46.2497 76.6667 46.2497 76.0417C45.833 72.7083 45.208 69.375 44.7914 66.0417C44.7914 65.625 44.583 65.4167 44.1664 65.2083C42.9164 64.7917 41.6664 64.1667 40.4164 63.5417C40.208 63.5417 39.9997 63.3333 39.9997 63.125C39.7914 61.875 39.3747 60.4167 39.1664 59.1667C41.6664 59.375 42.9164 61.25 44.3747 63.125C44.1664 61.0417 43.958 59.1667 43.5414 57.0833C43.5414 56.875 43.1247 56.4583 42.9164 56.4583C41.458 55.8333 40.208 55.4167 38.7497 54.7917C38.5414 54.5833 38.1247 54.375 38.1247 53.9583C37.708 52.0833 37.2914 50 37.083 48.125C37.083 47.9167 37.083 47.5 37.2914 47.2917C37.9164 46.875 38.5414 46.4583 39.1664 46.0417C39.583 45.8333 39.583 45.625 39.583 45.2083C38.333 41.6667 36.8747 38.125 34.9997 35C32.9164 31.875 30.4164 28.9583 26.8747 27.2917C22.4997 25.2083 18.1247 25.2083 13.958 27.9167C10.833 30 9.3747 33.125 8.54137 36.6667C8.1247 38.3333 7.91637 40.2083 8.1247 42.0833C8.7497 42.0833 9.16637 42.0833 9.58303 42.0833C10.208 42.0833 10.4164 42.2917 10.4164 42.9167C11.0414 45.4167 11.6664 47.9167 12.4997 50.4167C13.5414 53.3333 14.9997 56.0417 16.8747 58.5417C17.708 59.5833 18.7497 60.625 20.208 61.25C21.8747 61.875 22.9164 61.0417 22.9164 59.375C22.9164 57.9167 22.708 56.4583 22.2914 55C21.2497 51.4583 20.4164 47.9167 20.6247 44.1667C20.6247 43.125 20.833 42.0833 21.458 41.0417C22.2914 39.1667 24.583 38.75 26.0414 40.2083C26.6664 40.8333 27.083 41.6667 27.708 42.2917C27.9164 42.7083 27.9164 43.125 27.9164 43.5417C27.708 44.7917 27.2914 46.0417 27.2914 47.2917C27.083 51.0417 28.333 53.3333 31.458 54.5833C32.4997 55 33.7497 55.625 34.7914 56.0417C35.208 56.25 35.4164 56.4583 35.6247 57.0833C36.2497 59.7917 36.8747 62.2917 37.4997 65C38.1247 67.9167 38.958 70.8333 40.6247 73.3333C41.458 74.5833 42.083 75.8333 42.708 77.0833C42.9164 77.5 43.1247 77.7083 43.1247 78.125C43.5414 80.4167 43.958 82.5 44.3747 84.7917C44.7914 86.875 46.0414 87.9167 48.1247 87.9167C49.583 87.9167 50.833 87.9167 52.2914 87.9167C54.3747 87.9167 55.4164 86.875 55.833 85C56.2497 83.5417 56.458 82.0833 56.6664 80.625C56.8747 78.5417 57.4997 76.6667 58.7497 75C59.583 73.75 60.4164 72.2917 61.0414 71.0417C61.458 70 62.083 68.9583 62.2914 68.125C63.1247 64.375 63.958 60.8333 64.9997 57.0833C64.9997 56.6667 65.4164 56.4583 65.6247 56.25C66.8747 55.625 68.333 55 69.7914 54.375C71.8747 53.3333 73.1247 51.6667 73.333 49.375C73.5414 47.5 73.1247 45.625 72.708 43.75C72.708 43.5417 72.4997 42.9167 72.708 42.7083C73.1247 41.875 73.7497 41.0417 74.3747 40.2083C75.833 38.75 78.1247 39.1667 79.1664 41.0417C79.583 42.0833 79.7914 43.125 79.7914 44.375C79.9997 47.2917 79.3747 50.2083 78.5414 53.125C78.1247 55 77.4997 56.875 77.2914 58.75C77.083 61.0417 78.5414 61.875 80.4164 61.0417C81.0414 60.625 81.6664 60.2083 82.083 59.7917C83.1247 58.3333 84.3747 56.875 85.4164 55.4167C87.708 51.6667 88.958 47.5 89.7914 43.125C89.7914 42.5 90.208 42.5 90.6247 42.5C91.0414 42.5 91.6664 42.5 92.083 42.5C92.083 42.2917 92.083 42.0833 92.083 41.875C92.083 38.125 91.6664 35 89.9997 32.0833ZM29.583 47.2917C29.583 45.8333 29.7914 44.375 29.7914 42.7083H29.9997C32.2914 45.625 33.958 48.75 34.1664 52.7083C31.2497 51.875 29.583 50.8333 29.583 47.2917ZM70.208 49.5833C69.7914 50.625 68.958 51.6667 67.9164 52.0833C67.2914 52.2917 66.6664 52.7083 65.833 52.9167C66.0414 48.9583 67.708 45.8333 70.208 42.7083C70.4164 45 70.833 47.2917 70.208 49.5833Z" fill="#E64A19"/>
<path d="M93.75 43.75V44.1667C93.5417 50 93.125 55.625 91.4583 61.25C90.4167 64.1667 89.375 66.875 87.0833 69.1667C84.375 72.0833 80.8333 73.5417 76.875 72.5C73.9583 71.875 72.2917 69.5833 72.0833 66.6667C72.0833 63.9583 72.7083 61.4583 73.9583 59.1667C73.9583 60.4167 73.75 61.875 73.75 63.125C73.75 65.2083 75.2083 66.875 77.0833 67.2917C78.3333 67.5 79.7917 67.2917 80.8333 66.6667C82.7083 65.625 83.9583 63.9583 85.2083 62.0833C87.9167 57.9167 89.375 53.5417 90.4167 48.75C90.8333 47.0833 91.0417 45.625 91.4583 43.9583H93.75V43.75ZM27.5 68.9583C26.4583 71.6667 24.1667 72.7083 21.4583 72.9167C17.2917 73.125 14.1667 71.0417 11.6667 67.7083C9.58333 64.5833 8.33333 61.25 7.70833 57.5C6.66667 53.125 6.25 48.3333 6.25 43.75H8.54167C9.16667 46.6667 9.79167 49.375 10.625 52.2917C11.6667 56.25 13.3333 60 15.8333 63.3333C16.875 64.7917 18.3333 66.25 20 67.0833C23.3333 68.5417 26.25 66.4583 26.25 62.9167C26.25 61.875 26.0417 60.625 26.0417 59.375C26.875 61.0417 27.5 62.7083 27.7083 64.5833C28.125 65.8333 28.125 67.5 27.5 68.9583Z" fill="#E64A19"/>
</svg>
