<svg width="93" height="93" viewBox="0 0 93 93" fill="none" xmlns="http://www.w3.org/2000/svg">
<path d="M92.7152 45.1515C92.7326 45.2368 92.7462 45.3201 92.7598 45.4053C92.7481 45.322 92.7307 45.2368 92.7152 45.1515ZM46.5 27.125C20.6886 27.125 0 36.7989 0 46.4981C0 56.1391 20.8591 65.875 46.5 65.875C72.1409 65.875 93 56.1139 93 46.4981C93 36.8842 72.1409 27.125 46.5 27.125Z" fill="#303F9F"/>
<path d="M46.5 31C72.4935 31 87.9935 40.7185 89.0669 45.9594L89.0707 45.9866L89.0901 46.0718C89.1134 46.2152 89.125 46.3586 89.125 46.5C89.125 51.9657 72.9411 62 46.5 62C20.0589 62 3.875 51.9637 3.875 46.5C3.875 41.2378 18.9197 31 46.5 31ZM46.5 29.0625C19.8439 29.0625 1.9375 39.0135 1.9375 46.5C1.9375 53.8296 20.2372 63.9375 46.5 63.9375C72.7628 63.9375 91.0625 53.8296 91.0625 46.5C91.0625 46.2288 91.0373 45.9575 90.9889 45.6843L90.8455 45.7056L90.985 45.6708C90.9831 45.663 90.9831 45.6533 90.9811 45.6456L90.8397 45.6649L90.9772 45.632C89.6094 38.5369 71.7282 29.0625 46.5 29.0625Z" fill="white"/>
<path d="M71.3295 41.3153C71.1551 41.3153 71.066 41.3366 70.9846 41.4974C70.7153 42.0147 67.4312 46.936 66.8209 47.8912C66.7182 48.0365 66.5923 48.0171 66.5768 47.8505C66.5148 47.2828 66.0246 46.6318 65.2516 46.3179C64.6645 46.0796 64.0871 46.035 63.4904 46.1145C62.4112 46.2598 61.4482 46.8294 60.6016 47.4727C59.3247 48.4414 58.2262 49.6988 56.806 50.625C56.031 51.1306 54.9692 51.5724 54.2601 50.9137C53.6169 50.3169 53.6886 48.9936 54.6728 47.9706C54.7774 47.8621 54.9014 47.9512 54.8821 48.0481C54.7891 48.5111 54.9034 48.9723 55.2541 49.2958C55.6842 49.6795 56.2984 49.724 56.8234 49.4683C57.4434 49.1621 57.8096 48.5673 57.9142 47.8931C58.0789 46.8488 57.2749 45.9265 56.2674 45.8529C55.4497 45.7948 54.6651 46.0796 53.9017 46.7112C53.52 47.029 53.3011 47.2634 52.9697 47.7342C52.8884 47.8485 52.7644 47.8602 52.7682 47.6897C52.807 46.3508 52.2529 45.5991 51.1466 45.5739C50.2882 45.5545 49.3699 46.0215 48.6549 46.5891C47.8722 47.2188 47.1863 48.052 46.452 48.8366C46.3609 48.9335 46.2796 48.9297 46.2544 48.7437C46.2331 47.8563 46.0102 46.998 45.5995 46.3876C45.4542 46.1745 45.15 46.0699 44.8923 46.2133C44.7741 46.2772 44.3614 46.4671 44.0611 46.7093C43.9139 46.8313 43.8538 47.0096 43.9197 47.2382C44.3149 48.5615 44.2297 50.067 43.6911 51.338C43.197 52.5024 42.2379 53.5545 41.1122 53.909C40.3702 54.1454 39.5971 54.0292 39.1205 53.3723C38.4656 52.4637 38.7291 50.8846 39.7076 49.5729C40.5717 48.4182 41.8175 47.6858 43.0633 47.2111C43.2106 47.1549 43.2396 47.06 43.1989 46.936C43.1311 46.7325 43.0226 46.4535 42.98 46.3257C42.8657 46.0215 42.546 45.973 42.1546 46.0157C41.2498 46.1203 40.4341 46.4303 39.6281 46.8623C37.5182 47.9919 36.4603 50.1793 35.9972 51.3496C35.7744 51.9134 35.5826 52.2622 35.3366 52.5741C35.0052 52.9926 34.5867 53.3723 33.8214 54.0446C33.7536 54.1047 33.7013 54.2326 33.7594 54.3527C33.8389 54.5135 34.2361 55.0754 34.3465 55.1238C34.4705 55.1839 34.6158 55.1006 34.672 55.058C35.2067 54.6957 35.8461 54.1222 36.16 53.7327C36.2685 53.599 36.3809 53.6552 36.439 53.8587C36.7316 54.8991 37.4949 55.7516 38.5528 56.1062C40.4884 56.7591 42.4956 55.8136 44.0107 54.1687C44.9737 53.1243 45.3205 52.4501 45.6906 51.9948C46.3144 51.2198 47.5486 49.4857 49.0192 48.3736C49.5578 47.9609 50.1972 47.649 50.5149 47.8563C50.7726 48.0229 50.8559 48.4123 50.4432 49.1622C48.9456 51.8998 46.7407 55.1122 46.3357 55.893C46.2621 56.0267 46.3241 56.1352 46.4675 56.1352C47.2522 56.1313 48.0291 56.1333 48.7402 56.1333C48.8584 56.1275 48.9126 56.0732 48.9707 55.988C50.1197 54.19 51.2027 52.4753 52.3614 50.7044C52.4272 50.6017 52.4854 50.6811 52.4892 50.7276C52.5125 51.1403 52.6152 51.7022 52.8574 52.0703C53.2952 52.7523 53.9172 53.0449 54.6069 53.0507C55.1533 53.0565 55.4323 52.9732 56.0213 52.7543C56.5037 52.5741 56.8912 52.3416 57.1857 52.1285C57.3582 52.0083 57.3892 52.2098 57.3853 52.2408C57.1199 53.6688 57.4492 55.3622 58.8675 56.0635C60.5667 56.9005 62.4344 55.7225 63.5097 54.6608C63.6144 54.5581 63.7267 54.5697 63.7384 54.7887C63.7597 55.1936 63.9457 55.676 64.2809 56.0151C65.1799 56.918 66.9992 56.5595 68.8204 55.149C69.9907 54.2462 71.2152 52.9693 72.3215 51.617C72.3641 51.5647 72.3932 51.4813 72.3099 51.3941C72.1413 51.2198 71.8972 51.0163 71.7306 50.8613C71.655 50.7974 71.5426 50.8148 71.4787 50.8652C70.3452 51.9425 69.3242 53.1728 67.8478 54.19C67.3518 54.5368 66.5574 54.8177 66.2009 54.3353C66.0614 54.1473 66.0789 53.8877 66.2164 53.5487C66.6466 52.4772 73.4569 42.1077 73.8095 41.4955C73.8715 41.3889 73.8095 41.3114 73.6739 41.3114C72.9725 41.3114 72.0541 41.3133 71.3237 41.3133M60.5318 54.0563C60.1811 53.8741 60.03 53.384 60.0377 52.9907C60.0552 51.8727 60.5492 50.7277 61.4657 49.6C62.5836 48.2263 63.8178 47.5114 64.6296 47.9028C65.4686 48.3019 65.1992 49.2745 64.8253 50.036C64.7982 50.096 64.7963 50.1445 64.8098 50.1948C64.8234 50.2743 64.9261 50.3498 65.0268 50.3867C65.0636 50.4002 65.083 50.4254 65.0423 50.5087C64.7536 51.1287 64.4862 51.4891 64.1239 52.0258C63.7907 52.5237 63.4148 52.9132 62.9576 53.2871C62.4267 53.725 61.7389 54.1938 61.0898 54.1938C60.9019 54.1938 60.712 54.1531 60.5318 54.0563Z" fill="white"/>
<path d="M35.1309 35.0261C34.4799 35.0261 33.8289 35.0513 33.1701 35.1036C28.9851 35.4562 25.0036 37.8142 24.9939 41.3889C24.9939 43.2043 26.2804 44.6729 28.2779 44.609C30.6262 44.5296 32.554 42.6483 33.5634 40.2768C33.9451 39.3777 33.236 39.0038 32.8989 39.5211C32.2963 40.455 31.4477 41.1777 30.5293 41.6272C29.4249 42.1697 28.243 42.0224 27.8865 41.1234C27.3828 39.8583 28.4291 37.9653 30.818 37.0721C34.2667 35.7953 37.8763 36.6401 41.3483 37.293C41.3987 37.293 41.5827 37.3957 41.4181 37.4809C40.7981 37.82 40.1858 38.0951 39.2326 38.9166C38.5467 39.5018 37.6535 40.2806 36.9599 41.1312C36.274 41.9682 35.7857 42.7161 35.1425 43.5414C35.0514 43.6616 34.941 43.6557 34.9429 43.6557C33.3716 43.9212 31.8332 44.0975 30.4247 45.0779C30.1341 45.2794 30.0062 45.6359 30.1844 45.9091C30.3433 46.1512 30.7056 46.1764 30.9556 45.9943C31.8313 45.3394 32.7322 45.0314 33.7649 45.0043C33.8095 45.0062 33.8308 45.0159 33.8444 45.0411C33.856 45.0566 33.8444 45.0895 33.8289 45.1147C32.2808 47.2614 31.8933 47.7458 30.7308 49.0769C30.1341 49.7608 29.5489 50.3382 28.8941 50.9388C26.2513 53.3936 23.409 53.3529 22.3899 51.8126C21.7815 50.8884 21.8609 49.9197 22.262 49.1137C22.7522 48.1275 23.7461 47.4067 24.5715 46.9844C24.8776 46.8274 24.9667 46.4361 24.6587 46.0796C24.4649 45.8451 23.9902 45.8044 23.6376 45.8684C22.5546 46.0699 21.2758 46.8875 20.5202 47.8717C19.6696 48.9781 19.2434 50.3188 19.3867 51.8242C19.6425 54.5426 21.8803 56.1119 24.4184 56.0945C26.4392 56.0771 28.3438 55.4667 30.6339 53.1417C32.771 50.9717 34.7143 47.7342 36.5356 44.7311C36.5917 44.6342 36.6324 44.5819 36.9095 44.5489C38.0507 44.4075 39.7382 44.2428 40.8194 44.1808C41.0616 44.1672 41.11 44.1711 41.2049 44.2913C41.4878 44.6458 41.9102 44.9481 42.2492 45.1302C42.4139 45.2212 42.4934 45.2639 42.6232 45.2678C42.784 45.2716 42.908 45.1844 42.9874 45.0934C43.1017 44.9674 43.1347 44.8047 43.0727 44.6981C43.0087 44.5877 42.2531 44.1692 42.2299 44.0006C42.2124 43.8941 42.3287 43.8689 42.3287 43.8689C42.8828 43.6945 43.4602 43.338 43.8089 42.6676C44.1519 42.0089 44.2081 41.1273 43.5784 40.6391C43.0281 40.2109 42.195 40.2787 41.5304 40.8735C40.8814 41.4528 40.6644 42.2956 40.7535 43.0338C40.769 43.1617 40.7651 43.2062 40.5869 43.2198C39.5871 43.2992 38.6242 43.3264 37.5527 43.3826C37.4811 43.3884 37.4597 43.3399 37.5004 43.2896C38.7327 41.1467 40.5752 39.6219 42.6096 38.1203C42.7433 38.0196 42.7026 37.8277 42.6968 37.6669C46.3742 38.4652 49.9256 39.9532 53.7425 39.9202C55.3196 39.9067 56.8289 39.6684 58.2704 38.8759C59.5395 38.1823 60.0568 37.5429 60.0936 36.8784C60.1246 36.4173 59.8049 36.1286 59.3496 36.2254C55.4959 37.1109 51.8205 37.1012 47.9842 36.6381C43.6346 36.1111 39.4592 35.0261 35.1309 35.0261C35.1309 35.0261 35.1328 35.0261 35.1212 35.0261H35.1309ZM41.7707 42.749C41.7145 42.3421 41.8482 41.7957 42.2822 41.4102C42.4992 41.2164 42.7956 41.1719 42.9777 41.3269C43.1812 41.5012 43.0843 41.9333 42.8789 42.2336C42.6561 42.5649 42.2744 42.8498 41.9276 42.9195C41.916 42.9214 41.9082 42.9234 41.8986 42.9234C41.8443 42.9214 41.7959 42.8807 41.7707 42.749Z" fill="white"/>
</svg>
