<svg width="87" height="87" viewBox="0 0 87 87" fill="none" xmlns="http://www.w3.org/2000/svg">
<path d="M43.5 13.92C31.6555 13.92 20.9029 17.1004 13.0058 22.3651C5.10872 27.6298 0 35.1073 0 43.5C0 51.8927 5.10872 59.3701 13.0058 64.6349C20.9029 69.8996 31.6555 73.08 43.5 73.08C55.3445 73.08 66.0971 69.8996 73.9942 64.6349C81.8913 59.3701 87 51.8927 87 43.5C87 35.1073 81.8913 27.6298 73.9942 22.3651C66.0971 17.1004 55.3445 13.92 43.5 13.92ZM43.5 17.4C54.7175 17.4 64.8465 20.449 72.0639 25.2606C79.2813 30.0722 83.52 36.518 83.52 43.5C83.52 50.4819 79.2813 56.9278 72.0639 61.7394C64.8465 66.551 54.7175 69.6 43.5 69.6C32.2825 69.6 22.1535 66.551 14.9361 61.7394C7.71873 56.9278 3.48 50.4819 3.48 43.5C3.48 36.518 7.71873 30.0722 14.9361 25.2606C22.1535 20.449 32.2825 17.4 43.5 17.4ZM43.5 20.88C23.3212 20.88 6.96 31.0085 6.96 43.5C6.96 55.9914 23.3212 66.12 43.5 66.12C63.6788 66.12 80.04 55.9914 80.04 43.5C80.04 31.0085 63.6788 20.88 43.5 20.88ZM43.5 24.36C44.5475 24.36 45.5797 24.3942 46.5994 24.4551C46.6585 24.4586 46.7169 24.4619 46.7761 24.4653C50.6354 24.7107 54.2702 25.3997 57.5831 26.4228C61.7504 27.8549 64.38 29.9036 64.38 32.19C64.38 35.3898 59.2521 38.1394 51.9145 39.3539C50.9454 30.7357 47.5507 24.36 43.5 24.36ZM43.5 24.36C39.4493 24.36 36.0546 30.7357 35.0855 39.3539C27.7479 38.1394 22.62 35.3898 22.62 32.19C22.62 29.9036 25.2496 27.8549 29.4169 26.4228C32.7298 25.3997 36.3663 24.7107 40.2239 24.4653C40.2831 24.4619 40.3415 24.4586 40.4006 24.4551C41.4203 24.3942 42.4525 24.36 43.5 24.36ZM43.5 31.32C45.7376 31.32 47.6406 34.8489 48.3836 39.7957C46.8141 39.9366 45.1843 40.02 43.5 40.02C41.8157 40.02 40.1859 39.9366 38.6164 39.7957C39.3594 34.8489 41.2624 31.32 43.5 31.32ZM16.129 34.2087C17.956 38.3203 25.2345 41.6553 34.8306 42.9324C34.8167 43.4092 34.8 43.8845 34.8 44.37C34.8 52.4036 36.8629 59.313 39.8331 62.4972C24.267 61.3871 12.18 53.3101 12.18 43.5C12.18 40.1261 13.6216 36.9613 16.129 34.2087ZM70.871 34.2087C73.3784 36.9613 74.82 40.1261 74.82 43.5C74.82 53.3101 62.733 61.3871 47.1669 62.4972C50.1371 59.313 52.2 52.4036 52.2 44.37C52.2 43.8845 52.1833 43.4092 52.1694 42.9324C61.7655 41.6553 69.044 38.3203 70.871 34.2087ZM38.3038 43.2961C39.9881 43.4248 41.7217 43.5 43.5 43.5C45.2783 43.5 47.0135 43.4248 48.6996 43.2961C48.71 43.651 48.72 44.0081 48.72 44.37C48.72 51.5771 46.3832 57.42 43.5 57.42C40.6168 57.42 38.28 51.5771 38.28 44.37C38.28 44.0081 38.2916 43.651 38.3038 43.2961Z" fill="white"/>
</svg>
